<?xml version="1.0" encoding="UTF-8"?>
<svg version="1.1" xmlns="http://www.w3.org/2000/svg" width="2048" height="2048">
<path d="M0 0 C2.82075798 0.92970284 5.33748971 1.29369633 8.28515625 1.60546875 C18.45596969 3.08000449 28.08108856 6.6350357 37.78515625 9.91796875 C38.97093262 10.31338867 38.97093262 10.31338867 40.18066406 10.71679688 C63.21602444 18.41871134 84.12091598 29.48587353 104.95898438 41.83691406 C106.38213835 42.67939077 107.80941289 43.51490813 109.23828125 44.34765625 C116.62209461 48.90025283 123.72820297 53.90398977 130.84765625 58.85546875 C131.69392578 59.43748047 132.54019531 60.01949219 133.41210938 60.61914062 C138.23361401 63.97597847 142.74630076 67.48303125 147.09155273 71.43969727 C148.92613548 73.10530144 148.92613548 73.10530144 151.78515625 74.91796875 C151.78515625 75.57796875 151.78515625 76.23796875 151.78515625 76.91796875 C152.32398438 77.13839844 152.8628125 77.35882812 153.41796875 77.5859375 C156.57693968 79.36351025 159.04765402 81.75286903 161.66015625 84.23046875 C163.69056375 86.13884408 165.72938234 88.03692586 167.78515625 89.91796875 C168.31351074 90.40241455 168.84186523 90.88686035 169.38623047 91.38598633 C172.74531907 94.39377931 172.74531907 94.39377931 177.16015625 94.98046875 C180.50529985 93.99999562 183.31519483 92.6540623 186.40771484 91.0793457 C190.98599822 88.84286039 195.70531225 86.9323513 200.41015625 84.98046875 C201.40144531 84.56345703 202.39273438 84.14644531 203.4140625 83.71679688 C228.20598274 73.39480692 253.74201691 65.96633005 280.17236328 61.40136719 C283.39710468 60.80475086 286.54924095 59.99172303 289.72265625 59.16796875 C320.87446742 52.37748774 359.50356426 55.0689264 390.78515625 60.91796875 C391.61966309 61.07168945 392.45416992 61.22541016 393.31396484 61.38378906 C411.8400875 64.83132601 429.68728773 69.51686728 447.1418457 76.70874023 C451.19932519 78.35736695 455.24774303 79.67795107 459.47265625 80.85546875 C465.15786615 82.53045113 469.8051529 85.03110804 474.83203125 88.13671875 C477.69575872 89.86404643 480.5855055 91.34327053 483.59765625 92.79296875 C498.2400957 99.97967788 511.69574869 109.24703976 524.78515625 118.91796875 C525.76871094 119.64242187 526.75226563 120.366875 527.765625 121.11328125 C546.34079462 134.90648612 546.34079462 134.90648612 551.78515625 140.91796875 C551.78515625 141.57796875 551.78515625 142.23796875 551.78515625 142.91796875 C552.34203125 143.12421875 552.89890625 143.33046875 553.47265625 143.54296875 C556.09896684 145.10455883 557.68859438 147.04093924 559.57421875 149.41796875 C560.83556917 151.03464867 560.83556917 151.03464867 562.66015625 152.79296875 C565.17438616 155.30719866 567.47517918 157.96789376 569.80078125 160.65625 C571.90262896 163.05185989 574.06228911 165.38758783 576.22265625 167.73046875 C580.8366758 172.84584187 584.83729372 178.28048604 588.78515625 183.91796875 C589.37039063 184.73007812 589.955625 185.5421875 590.55859375 186.37890625 C594.60007096 192.02965946 598.26187059 197.8651517 601.86328125 203.8046875 C603.54129826 206.52293863 605.28709406 209.16227566 607.09765625 211.79296875 C609.50484407 215.351983 611.14940272 218.93526451 612.78515625 222.91796875 C613.53835594 224.32339571 614.31084059 225.71858165 615.09765625 227.10546875 C632.27537213 257.59204559 640.89703032 292.71215731 647.09765625 326.91796875 C647.25685547 327.76286865 647.41605469 328.60776855 647.58007812 329.47827148 C650.12267964 344.1864372 649.99359325 359.34562026 649.97265625 374.23046875 C649.972052 375.0363443 649.97144775 375.84221985 649.9708252 376.67251587 C649.94546438 389.19503764 649.51684571 401.50094179 647.78515625 413.91796875 C647.65093262 414.92827148 647.51670898 415.93857422 647.37841797 416.97949219 C645.41706909 431.54516838 642.81550393 445.77907339 638.78515625 459.91796875 C638.58809082 460.61003418 638.39102539 461.30209961 638.18798828 462.01513672 C635.17688655 472.4073238 631.48253315 482.55632967 627.640625 492.66650391 C627.09510838 494.10222145 626.55307062 495.53926904 626.015625 496.97802734 C621.38120665 509.36022663 615.84605773 521.47555592 607.71875 531.98828125 C606.39026561 534.73418623 606.86968374 536.02477211 607.78515625 538.91796875 C609.84792242 541.53146437 609.84792242 541.53146437 612.51953125 544.04296875 C612.99457092 544.51234863 613.4696106 544.98172852 613.95904541 545.46533203 C615.47524673 546.95923902 617.00472933 548.4386525 618.53515625 549.91796875 C619.54909586 550.91182394 620.56212657 551.90660729 621.57421875 552.90234375 C623.44859451 554.74417959 625.32885771 556.57912131 627.21386719 558.41015625 C631.37547841 562.46903115 635.31822337 566.46769303 638.91015625 571.04296875 C643.05896168 576.18057281 647.50380701 580.73889035 652.21875 585.35546875 C654.99709267 588.12958259 657.55292335 591.02913864 660.1015625 594.01171875 C663.91010883 598.32394754 668.10413562 602.28005121 672.22265625 606.29296875 C675.30179216 609.44720553 678.22700733 612.72183551 681.16015625 616.01171875 C683.09915447 618.15846678 685.05365357 620.27992199 687.03515625 622.38671875 C687.58421631 622.97259766 688.13327637 623.55847656 688.69897461 624.16210938 C689.78694962 625.32081163 690.87884018 626.47585135 691.97485352 627.62695312 C695.78515625 631.69557097 695.78515625 631.69557097 695.78515625 633.91796875 C696.34203125 634.13839844 696.89890625 634.35882812 697.47265625 634.5859375 C700.52668363 636.34509854 702.44846065 638.59812416 704.78515625 641.23046875 C705.63078125 642.17535156 706.47640625 643.12023438 707.34765625 644.09375 C708.86436892 645.85109497 710.35010815 647.63629627 711.78515625 649.4609375 C714.65927577 652.99183824 717.91657861 656.07489583 721.1796875 659.2421875 C726.1760682 664.12556443 730.70205295 669.10229537 734.8984375 674.69140625 C736.7502953 677.02120717 736.7502953 677.02120717 739.28515625 678.91796875 C741.82564447 680.95035933 743.51396936 682.9560238 745.47265625 685.54296875 C753.27144924 695.3079549 762.53280179 703.82919333 771.47265625 712.53515625 C774.31186991 715.46069736 776.91719993 718.54518176 779.53515625 721.66796875 C783.8680502 726.79895642 788.34712457 731.63244951 793.23828125 736.24609375 C794.78515625 737.91796875 794.78515625 737.91796875 794.78515625 739.91796875 C795.34203125 740.14484375 795.89890625 740.37171875 796.47265625 740.60546875 C799.44675213 742.29346911 801.5052449 744.38473392 803.78515625 746.91796875 C803.78515625 747.57796875 803.78515625 748.23796875 803.78515625 748.91796875 C804.77515625 749.24796875 805.76515625 749.57796875 806.78515625 749.91796875 C808.15764306 751.47112261 809.45994326 753.08682559 810.72265625 754.73046875 C814.81110091 759.88487752 819.21635872 764.49297687 823.97436523 769.0324707 C825.27879047 770.2932243 826.5366275 771.60183777 827.78515625 772.91796875 C827.78515625 773.57796875 827.78515625 774.23796875 827.78515625 774.91796875 C828.34460937 775.14097656 828.9040625 775.36398437 829.48046875 775.59375 C832.49569441 777.32622712 834.35033414 779.5042861 836.66015625 782.10546875 C837.63456311 783.1921722 838.60986738 784.27807148 839.5859375 785.36328125 C840.3605835 786.22808105 840.3605835 786.22808105 841.15087891 787.11035156 C844.00905377 790.27167913 846.93179957 793.37244051 849.84765625 796.48046875 C856.74979037 803.8594844 863.64858796 811.24305411 870.22265625 818.91796875 C874.79651986 824.18714655 879.82172926 829.02042796 884.78515625 833.91796875 C891.88758463 840.93271283 898.53828885 848.37887403 905.01953125 855.96875 C906.66117375 857.87198899 906.66117375 857.87198899 908.24471438 859.13519585 C911.47891671 861.94867341 912.67678446 863.36257015 913.52344322 867.70164299 C913.54844735 869.14837337 913.54078933 870.59590552 913.50668335 872.04244995 C913.5118099 872.84386921 913.51693645 873.64528847 913.52221835 874.47099316 C913.532077 877.14799312 913.49914623 879.82272083 913.46630859 882.49951172 C913.46461563 884.42155402 913.46556716 886.34360021 913.46896362 888.26564026 C913.47068481 893.47826908 913.43541438 898.69006915 913.39351988 903.9025054 C913.35600672 909.35171905 913.35248704 914.8009518 913.34536743 920.25027466 C913.32672036 930.56692931 913.27748497 940.88320239 913.21727049 951.19968903 C913.15020125 962.94562087 913.11721527 974.69157096 913.08709788 986.43764663 C913.02438601 1010.59796554 912.91885342 1034.75794576 912.78515625 1058.91796875 C909.45130821 1058.1825611 907.36261813 1057.219274 904.78515625 1054.91796875 C904.78515625 1054.25796875 904.78515625 1053.59796875 904.78515625 1052.91796875 C903.79515625 1052.58796875 902.80515625 1052.25796875 901.78515625 1051.91796875 C900.3828125 1050.4921875 900.3828125 1050.4921875 898.84765625 1048.60546875 C895.06019067 1044.10785337 890.93125246 1040.02794566 886.69750977 1035.95581055 C885.35724854 1034.64584977 884.06651882 1033.28559711 882.78515625 1031.91796875 C882.78515625 1031.25796875 882.78515625 1030.59796875 882.78515625 1029.91796875 C882.12515625 1029.91796875 881.46515625 1029.91796875 880.78515625 1029.91796875 C880.04265625 1028.88671875 879.30015625 1027.85546875 878.53515625 1026.79296875 C873.4711788 1019.76874197 866.95314516 1013.95574039 860.78515625 1007.91796875 C857.22323025 1004.40424927 853.78244912 1000.80053822 850.41015625 997.10546875 C849.96671875 996.62271484 849.52328125 996.13996094 849.06640625 995.64257812 C846.48158137 992.81773379 843.95373193 989.9538636 841.45703125 987.05078125 C837.64899825 982.68396645 833.55127112 978.65349348 829.41015625 974.60546875 C823.83596574 969.10304124 818.66838248 963.57894862 813.8359375 957.4140625 C810.14999183 952.92774006 805.9475807 948.95634744 801.78515625 944.91796875 C798.13776901 941.37429868 794.82558855 937.65316052 791.59765625 933.73046875 C787.20047535 928.43766387 782.57776337 923.58714907 777.5859375 918.84375 C775.78515625 916.91796875 775.78515625 916.91796875 775.78515625 914.91796875 C775.22828125 914.71171875 774.67140625 914.50546875 774.09765625 914.29296875 C771.4941633 912.74494592 769.93329595 910.84241354 768.0625 908.48828125 C765.66705114 905.54341751 762.8732923 902.97994769 760.16015625 900.33203125 C757.15865442 897.37072811 754.27545182 894.37372123 751.53515625 891.16796875 C747.69511622 886.69083117 743.47840093 882.62332081 739.23828125 878.53125 C736.94288892 876.08599925 735.495294 873.77569893 733.78515625 870.91796875 C732.16676906 869.20438232 730.48843944 867.54719615 728.78515625 865.91796875 C727.36573075 864.5040663 725.94935701 863.08709704 724.53515625 861.66796875 C723.76171875 860.89453125 722.98828125 860.12109375 722.19140625 859.32421875 C715.03515625 852.16796875 715.03515625 852.16796875 712.78808594 849.91943359 C711.19171239 848.32422755 709.59077137 846.73359268 707.98828125 845.14453125 C701.53475708 838.62235257 695.64373036 831.62955148 689.92578125 824.4609375 C687.67192294 821.78345254 685.2909576 819.36121706 682.78515625 816.91796875 C680.50989361 814.69327515 678.24040236 812.46282083 675.97265625 810.23046875 C675.37517578 809.64974609 674.77769531 809.06902344 674.16210938 808.47070312 C672.66500952 806.99071299 671.22026894 805.45814093 669.78515625 803.91796875 C669.78515625 803.25796875 669.78515625 802.59796875 669.78515625 801.91796875 C669.23472656 801.70527344 668.68429687 801.49257812 668.1171875 801.2734375 C664.98198209 799.45113218 662.83761721 796.92493636 660.47265625 794.23046875 C659.50270496 793.14457861 658.53135181 792.05993901 657.55859375 790.9765625 C657.08776367 790.45175293 656.61693359 789.92694336 656.13183594 789.38623047 C653.83935436 786.88677721 651.39811079 784.54655827 648.9296875 782.22265625 C647.78515625 780.91796875 647.78515625 780.91796875 647.78515625 778.91796875 C647.12515625 778.91796875 646.46515625 778.91796875 645.78515625 778.91796875 C644.30958996 777.06760862 642.90436002 775.16085978 641.53515625 773.23046875 C638.30494383 768.77435574 635.18925927 765.22104601 630.78515625 761.91796875 C626.66661304 758.0220495 622.96446989 753.77147253 619.1953125 749.54296875 C616.85983873 746.9993085 614.44438945 744.57862123 611.97265625 742.16796875 C609.52833102 739.76600617 607.35064978 737.51463308 605.53515625 734.60546875 C603.59654697 731.62831878 601.56348479 730.11478667 598.78515625 727.91796875 C597.01820738 725.99000296 595.32700741 724.00770033 593.6328125 722.015625 C591.25188537 719.31254283 588.68704836 716.83624041 586.0703125 714.36328125 C584.78515625 712.91796875 584.78515625 712.91796875 584.78515625 710.91796875 C584.12515625 710.91796875 583.46515625 710.91796875 582.78515625 710.91796875 C581.234375 709.37890625 581.234375 709.37890625 579.47265625 707.29296875 C578.85003906 706.56335937 578.22742187 705.83375 577.5859375 705.08203125 C576.09436484 703.28955564 574.62529385 701.48194864 573.16015625 699.66796875 C570.87617378 697.02335747 568.51011358 695.08396047 565.78515625 692.91796875 C564.43128689 691.26794047 563.09837483 689.60053005 561.78515625 687.91796875 C561.04265625 687.17546875 560.30015625 686.43296875 559.53515625 685.66796875 C557.10865663 683.24146913 554.77782366 680.77143811 552.47265625 678.23046875 C551.77527344 677.46347656 551.07789063 676.69648437 550.359375 675.90625 C548.78515625 673.91796875 548.78515625 673.91796875 548.78515625 671.91796875 C548.12515625 671.91796875 547.46515625 671.91796875 546.78515625 671.91796875 C545.09375 670.2734375 545.09375 670.2734375 543.22265625 668.10546875 C542.60261719 667.39777344 541.98257812 666.69007813 541.34375 665.9609375 C539.78515625 663.91796875 539.78515625 663.91796875 538.78515625 660.91796875 C537.4640761 660.227339 536.12835931 659.56451942 534.78515625 658.91796875 C528.85832104 653.76173544 523.94670199 647.74024787 519.05078125 641.62890625 C515.55934163 637.45121816 511.69469877 633.69909564 507.78515625 629.91796875 C504.08898955 626.26988227 500.50051563 622.54012422 496.97265625 618.73046875 C496.44567139 618.16166992 495.91868652 617.59287109 495.37573242 617.00683594 C491.61051266 612.9051791 488.13249497 608.64224262 484.71484375 604.24609375 C482.68465551 601.79671685 480.51351567 599.62398153 478.22265625 597.41796875 C470.08521485 589.46260435 462.82628388 578.99636226 459.78515625 567.91796875 C459.3984375 566.83322266 459.3984375 566.83322266 459.00390625 565.7265625 C453.53772312 548.34106338 455.18575031 527.18534588 463.2890625 510.89453125 C464.98615641 508.10557211 466.82328173 505.52770109 468.78515625 502.91796875 C469.69324069 501.6679973 470.59935368 500.41659219 471.50390625 499.1640625 C473.36601528 496.59622979 475.24274248 494.04050225 477.13671875 491.49609375 C478.0199983 490.30373126 478.90281389 489.11102493 479.78515625 487.91796875 C480.22827148 487.32218018 480.67138672 486.7263916 481.12792969 486.11254883 C483.71593222 482.57557978 485.87684062 479.0684765 487.78515625 475.10546875 C488.28660156 474.07679688 488.78804687 473.048125 489.3046875 471.98828125 C490.03751953 470.46847656 490.03751953 470.46847656 490.78515625 468.91796875 C495.38122047 459.5704804 495.38122047 459.5704804 497.41015625 456.29296875 C498.97276601 453.59391552 499.98576803 450.87876086 501.03515625 447.94921875 C501.71125187 446.11812644 502.49240514 444.32665875 503.28515625 442.54296875 C504.7799857 438.93046425 505.90293569 435.35702339 506.96875 431.6015625 C507.78515625 428.91796875 507.78515625 428.91796875 508.7578125 426.453125 C517.21289028 404.55993881 515.4198783 378.99103246 514.78515625 355.91796875 C514.75856934 354.90798828 514.73198242 353.89800781 514.70458984 352.85742188 C513.99993848 333.99444693 507.86065858 314.83741544 499.78515625 297.91796875 C499.25793814 296.69207949 498.73734517 295.46329659 498.2265625 294.23046875 C496.54624299 290.36892147 494.68345317 286.64335296 492.72265625 282.91796875 C492.33924072 282.18827881 491.9558252 281.45858887 491.56079102 280.70678711 C488.35951759 274.73910835 484.76055023 269.11436621 480.88452148 263.56445312 C477.78515625 259.10422568 477.78515625 259.10422568 477.78515625 256.91796875 C477.19734375 256.67949219 476.60953125 256.44101562 476.00390625 256.1953125 C473.31815896 254.64911644 472.1088813 252.9800919 470.28515625 250.48046875 C466.17348899 245.15539593 461.5313251 240.80653111 456.51953125 236.36328125 C454.88404362 234.90068802 453.27603169 233.40497252 451.73046875 231.84765625 C446.38386763 226.54399971 440.16188251 221.90342266 433.78515625 217.91796875 C433.07101562 217.469375 432.356875 217.02078125 431.62109375 216.55859375 C423.10724203 211.31514221 414.43325927 206.54399298 404.83984375 203.625 C402.79090143 202.9199457 401.05126808 202.03153734 399.16015625 200.98046875 C393.7046024 198.14487455 387.74074562 196.88920834 381.80712891 195.43115234 C379.82302801 194.92758073 377.85794003 194.37777485 375.890625 193.8125 C365.83868427 190.98798773 356.2038502 190.07737599 345.78515625 189.91796875 C344.4408252 189.89524902 344.4408252 189.89524902 343.06933594 189.87207031 C315.95012827 189.48746723 291.76524506 192.75668933 266.390625 202.5546875 C263.6941873 203.57425062 261.04463524 204.47826543 258.28515625 205.29296875 C240.73463115 211.0094255 224.5542896 222.13559532 209.78515625 232.91796875 C192.76338904 244.99368923 174.47791458 250.80697591 153.6484375 247.29296875 C137.06540997 243.93601525 124.47172482 235.86826806 112.78515625 223.91796875 C111.93308594 223.07621094 111.08101562 222.23445312 110.203125 221.3671875 C107.81477085 218.9479661 105.54147677 216.46030173 103.28515625 213.91796875 C100.99590886 211.35762628 98.71404087 208.84685337 96.28515625 206.41796875 C93.05508983 203.18790233 90.07424292 199.75708363 87.06640625 196.3203125 C84.78830229 193.92128179 82.39469071 191.94424633 79.78515625 189.91796875 C78.11848958 188.25130208 76.45182292 186.58463542 74.78515625 184.91796875 C72.57972702 182.91149379 70.35026049 180.93554371 68.109375 178.96875 C66.63834555 177.67078284 65.1806607 176.35739448 63.7421875 175.0234375 C59.74530649 171.36162436 55.80970912 168.59393226 50.9609375 166.15625 C48.33198036 164.66005716 46.13921575 162.81662983 43.78515625 160.91796875 C30.30546613 151.70244204 16.32612558 143.12272735 0.78515625 137.91796875 C-0.41109375 137.510625 -1.60734375 137.10328125 -2.83984375 136.68359375 C-50.04890196 121.04581955 -100.15670316 120.98098762 -145.34765625 142.890625 C-153.82909291 147.18799611 -161.2999689 153.44419286 -168.21484375 159.91796875 C-169.05660156 160.69527344 -169.89835937 161.47257813 -170.765625 162.2734375 C-196.85885382 187.25945717 -210.27471598 221.75615475 -211.32177734 257.57617188 C-211.38393455 261.44085813 -211.40473512 265.30279244 -211.40234375 269.16796875 C-211.40243439 270.18411758 -211.40243439 270.18411758 -211.40252686 271.22079468 C-211.38938665 281.58948443 -210.96631164 291.68507756 -209.21484375 301.91796875 C-209.04726563 302.90410156 -208.8796875 303.89023437 -208.70703125 304.90625 C-208.05627241 308.39245806 -207.2843914 311.70213122 -206.1953125 315.08203125 C-205.02730001 319.6517056 -204.71648295 323.97056791 -204.52734375 328.66796875 C-204.49044434 329.5590332 -204.45354492 330.45009766 -204.41552734 331.36816406 C-203.75893681 349.81330739 -207.96388393 365.179982 -219.21484375 379.91796875 C-220.84899335 381.61653009 -222.50994343 383.29043366 -224.21484375 384.91796875 C-224.77171875 385.51609375 -225.32859375 386.11421875 -225.90234375 386.73046875 C-227.21484375 387.91796875 -227.21484375 387.91796875 -229.21484375 387.91796875 C-229.55515625 388.78421875 -229.55515625 388.78421875 -229.90234375 389.66796875 C-234.33237812 397.26231339 -244.9609647 400.7382421 -252.93554688 403.15771484 C-273.53927965 407.93436939 -292.78789236 403.52511767 -312.05712891 396.08105469 C-325.30814674 391.20028702 -339.08025904 387.97845913 -353.21484375 387.91796875 C-355.45833401 387.88024849 -357.70182352 387.84248358 -359.9453125 387.8046875 C-387.18995747 387.46635531 -414.19393851 389.35288394 -437.8046875 404.41015625 C-440.48435105 406.08657461 -443.23478548 407.56302442 -446.02734375 409.04296875 C-449.7562875 411.04437924 -452.9639095 413.19137874 -456.21484375 415.91796875 C-456.87484375 415.91796875 -457.53484375 415.91796875 -458.21484375 415.91796875 C-458.55515625 416.78421875 -458.55515625 416.78421875 -458.90234375 417.66796875 C-460.5621072 420.51327753 -462.63551042 421.85450209 -465.21484375 423.91796875 C-467.00467621 425.83167983 -468.70557895 427.80415716 -470.40234375 429.80078125 C-471.54183594 431.13182601 -472.70561782 432.44282436 -473.90234375 433.72265625 C-502.00790734 464.04023179 -508.76183376 505.09320184 -507.40820312 544.82958984 C-507.05119894 553.30696394 -505.95548142 561.61831926 -504.21484375 569.91796875 C-503.96347656 571.13226562 -503.71210937 572.3465625 -503.453125 573.59765625 C-502.2035749 579.00576198 -500.43612703 583.82752791 -498.21484375 588.91796875 C-497.73372632 590.5991147 -497.27783107 592.28757395 -496.83984375 593.98046875 C-494.32753695 603.50629869 -491.00654805 612.51106024 -486.53955078 621.28344727 C-485.23931853 623.86929435 -484.00251936 626.47580467 -482.78515625 629.1015625 C-478.45736996 638.41931958 -474.19174781 647.51762751 -468.21484375 655.91796875 C-467.22677734 657.31208984 -467.22677734 657.31208984 -466.21875 658.734375 C-462.71069338 663.60851795 -459.11475227 668.41333846 -455.44140625 673.1640625 C-454.21484375 674.91796875 -454.21484375 674.91796875 -453.30078125 677.015625 C-451.93266198 679.41229436 -450.65815195 679.70523183 -448.21484375 680.91796875 C-446.13671875 683.16796875 -446.13671875 683.16796875 -443.96484375 685.91796875 C-443.18109375 686.90410156 -442.39734375 687.89023438 -441.58984375 688.90625 C-440.80609375 689.90011719 -440.02234375 690.89398437 -439.21484375 691.91796875 C-438.49296875 692.79839844 -437.77109375 693.67882813 -437.02734375 694.5859375 C-422.61006289 712.19795673 -417.39013946 731.62172093 -419.52734375 754.22265625 C-421.08795051 764.95182772 -425.17434023 774.39472235 -430.21484375 783.91796875 C-430.87484375 783.91796875 -431.53484375 783.91796875 -432.21484375 783.91796875 C-432.31796875 784.66046875 -432.42109375 785.40296875 -432.52734375 786.16796875 C-433.26418172 789.11532065 -434.16283517 790.70179949 -436.21484375 792.91796875 C-436.87484375 792.91796875 -437.53484375 792.91796875 -438.21484375 792.91796875 C-438.46363281 793.62566406 -438.71242188 794.33335937 -438.96875 795.0625 C-440.3620117 798.25520941 -442.09491501 800.79709767 -444.15234375 803.60546875 C-444.84199219 804.55808594 -445.53164063 805.51070312 -446.2421875 806.4921875 C-448.21484375 808.91796875 -448.21484375 808.91796875 -451.21484375 810.91796875 C-452.24847946 812.66222901 -453.278294 814.4097749 -454.24609375 816.19140625 C-455.39846107 818.24522219 -456.80268593 820.03509166 -458.21484375 821.91796875 C-459.5868328 824.23615714 -460.91198584 826.5614573 -462.21484375 828.91796875 C-462.68148437 829.74683594 -463.148125 830.57570313 -463.62890625 831.4296875 C-469.62245885 842.20271409 -474.30521765 853.298616 -478.47851562 864.87597656 C-478.9596636 866.21030072 -479.44515959 867.54306715 -479.93554688 868.87402344 C-482.79936447 876.67972126 -484.83192182 884.13428161 -485.7578125 892.40625 C-486.11198481 895.1276253 -486.61175875 897.59101882 -487.2421875 900.24609375 C-488.79379874 907.86107837 -488.60922674 915.6174476 -488.58984375 923.35546875 C-488.58929993 924.16899811 -488.5887561 924.98252747 -488.5881958 925.82070923 C-488.52485556 946.5180211 -486.42426025 966.4936244 -478.9519043 985.9453125 C-478.13530125 988.13085495 -477.39737594 990.33467396 -476.66796875 992.55078125 C-471.9286771 1006.89599877 -464.42010031 1018.87528592 -455.87890625 1031.26171875 C-454.21484375 1033.91796875 -454.21484375 1033.91796875 -453.23828125 1036.63671875 C-451.95222143 1039.50335591 -450.99528842 1039.59371479 -448.21484375 1040.91796875 C-446.28882481 1042.86115873 -444.46303032 1044.81087979 -442.65234375 1046.85546875 C-441.57707047 1048.0404705 -440.50021764 1049.22404067 -439.421875 1050.40625 C-438.88256348 1050.99873535 -438.34325195 1051.5912207 -437.78759766 1052.20166016 C-425.96188309 1065.10677866 -411.52456647 1078.31159301 -395.51953125 1085.83203125 C-392.50769508 1087.25116761 -389.55575954 1088.78028564 -386.58984375 1090.29296875 C-384.13764681 1091.51403357 -381.67759341 1092.71835624 -379.21484375 1093.91796875 C-378.17972656 1094.42585938 -377.14460938 1094.93375 -376.078125 1095.45703125 C-364.63668227 1100.72037637 -352.40421559 1103.86750031 -340.21484375 1106.91796875 C-339.58041351 1107.09241013 -338.94598328 1107.2668515 -338.29232788 1107.44657898 C-331.70375356 1109.12267064 -325.31602392 1109.22417588 -318.54296875 1109.21875 C-317.34355652 1109.22303513 -316.14414429 1109.22732025 -314.90838623 1109.23173523 C-312.3803368 1109.23745568 -309.85227091 1109.23799573 -307.32421875 1109.23364258 C-303.49059421 1109.23048993 -299.65774772 1109.25394675 -295.82421875 1109.27929688 C-293.35546971 1109.28157107 -290.88671862 1109.28227281 -288.41796875 1109.28125 C-287.28836731 1109.29045975 -286.15876587 1109.29966949 -284.99493408 1109.30915833 C-277.04804263 1109.26379299 -269.87641345 1107.97912177 -262.21484375 1105.91796875 C-261.1616394 1105.64195328 -260.10843506 1105.36593781 -259.02331543 1105.08155823 C-246.47005887 1101.75700799 -234.75225849 1097.88697846 -223.21484375 1091.91796875 C-222.03921875 1091.35207031 -220.86359375 1090.78617188 -219.65234375 1090.203125 C-213.75113635 1087.34958063 -208.12573656 1084.30562455 -202.58984375 1080.79296875 C-185.50632976 1070.06901107 -165.33987774 1066.46620409 -145.40234375 1070.48486328 C-140.02978559 1072.00936811 -135.1023401 1074.23714535 -130.21484375 1076.91796875 C-129.11269531 1077.51996094 -128.01054688 1078.12195312 -126.875 1078.7421875 C-115.3406118 1085.82314396 -106.28732642 1096.19756466 -98.21484375 1106.91796875 C-97.74175781 1107.53542969 -97.26867188 1108.15289063 -96.78125 1108.7890625 C-92.86531548 1113.9474465 -89.07251723 1119.19986194 -85.24511719 1124.42407227 C-81.1111659 1130.06492912 -76.97837946 1135.6991424 -72.6328125 1141.1796875 C-72.17334229 1141.76411621 -71.71387207 1142.34854492 -71.24047852 1142.95068359 C-70.32133647 1144.11863645 -69.39621504 1145.28191349 -68.46459961 1146.43994141 C-65.21484375 1150.58143277 -65.21484375 1150.58143277 -65.21484375 1153.91796875 C-64.55484375 1153.91796875 -63.89484375 1153.91796875 -63.21484375 1153.91796875 C-60.78797587 1156.59374615 -58.68394406 1159.12902731 -56.83984375 1162.23046875 C-54.86086895 1165.50338861 -52.53572235 1168.39895132 -50.16796875 1171.3984375 C-48.14323454 1174.01034464 -46.20568141 1176.67173898 -44.27734375 1179.35546875 C-41.07887993 1183.78411096 -37.7343995 1188.05642161 -34.296875 1192.30078125 C-31.20607873 1196.18602234 -28.25193126 1200.17016561 -25.29296875 1204.15625 C-23.89935803 1206.0082853 -22.44951058 1207.81921454 -20.94921875 1209.5859375 C-19.21484375 1211.91796875 -19.21484375 1211.91796875 -19.21484375 1214.91796875 C-18.55484375 1214.91796875 -17.89484375 1214.91796875 -17.21484375 1214.91796875 C-15.98604267 1216.47505247 -14.83303124 1218.09214077 -13.71484375 1219.73046875 C-10.00565911 1224.9828908 -5.93693012 1229.65475364 -1.51171875 1234.3125 C0.89565893 1237.04331788 2.78069904 1239.88002075 4.78515625 1242.91796875 C7.01169389 1245.89016269 9.30452495 1248.80948546 11.59765625 1251.73046875 C12.79166667 1253.2578125 13.98567708 1254.78515625 15.1796875 1256.3125 C15.77096436 1257.06748779 16.36224121 1257.82247559 16.97143555 1258.6003418 C18.83161269 1260.97733219 20.68843884 1263.35688239 22.54296875 1265.73828125 C23.09227051 1266.44355957 23.64157227 1267.14883789 24.20751953 1267.87548828 C26.77131965 1271.19470088 29.27841517 1274.55559339 31.78515625 1277.91796875 C32.78473862 1279.2516152 33.78474054 1280.5849473 34.78515625 1281.91796875 C36.25051356 1283.87144216 37.71559913 1285.82511633 39.1796875 1287.77954102 C41.70745478 1291.15294395 44.24032191 1294.5222619 46.78515625 1297.8828125 C55.80701018 1309.81775767 55.80701018 1309.81775767 58.91015625 1314.60546875 C63.34404741 1321.4459557 68.54044368 1327.77472039 73.5625 1334.1875 C80.4683961 1343.0182669 87.14049955 1352.02780553 93.83984375 1361.015625 C99.50391149 1368.60501714 105.25515081 1376.11171844 111.125 1383.54296875 C116.78821305 1390.71568174 122.38562148 1397.9356887 127.72265625 1405.35546875 C131.58191167 1410.70142336 135.63785309 1415.87248693 139.7265625 1421.04296875 C148.05297115 1431.5731858 156.25828803 1442.20074981 164.4296875 1452.8515625 C166.02669726 1454.93058847 167.62841681 1457.00600351 169.234375 1459.078125 C174.09801652 1465.35626125 178.85440994 1471.70163149 183.53662109 1478.11621094 C192.10852323 1489.85187506 200.89988243 1501.41853881 209.78515625 1512.91796875 C211.45296472 1515.08375779 213.1190533 1517.25086755 214.78515625 1519.41796875 C215.61845813 1520.50132627 216.45179144 1521.58465963 217.28515625 1522.66796875 C242.28515626 1555.16796876 242.28515626 1555.16796876 243.53588867 1556.79394531 C244.36674912 1557.87404765 245.19764089 1558.9541259 246.02856445 1560.03417969 C248.14999442 1562.79174741 250.27082852 1565.54977009 252.390625 1568.30859375 C252.81867432 1568.86546875 253.24672363 1569.42234375 253.68774414 1569.99609375 C254.54014353 1571.10520092 255.39219786 1572.21457337 256.24389648 1573.32421875 C258.58796177 1576.3749746 260.95911065 1579.40201716 263.34765625 1582.41796875 C266.25397237 1586.15168109 269.00780765 1589.98151307 271.72265625 1593.85546875 C272.12492432 1594.42394531 272.52719238 1594.99242187 272.94165039 1595.578125 C275.78515625 1599.68080041 275.78515625 1599.68080041 275.78515625 1601.91796875 C253.99294203 1602.33935628 232.20140375 1602.65629878 210.40593529 1602.85058784 C200.28453377 1602.94321959 190.16567015 1603.0693789 180.04589844 1603.27587891 C171.22023603 1603.45588523 162.39641173 1603.57155067 153.5689646 1603.61156166 C148.89815581 1603.63493814 144.23260261 1603.68941527 139.56348801 1603.82110977 C108.90594735 1604.65244971 108.90594735 1604.65244971 101.55206299 1598.10736084 C98.37978551 1594.48328458 96.12428964 1590.63083125 94.04549026 1586.30379868 C91.83135097 1582.11240201 88.7644797 1578.58240987 85.78515625 1574.91796875 C84.74768168 1573.55549866 83.71546286 1572.18899005 82.69140625 1570.81640625 C82.20414063 1570.16381836 81.716875 1569.51123047 81.21484375 1568.83886719 C80.74304687 1568.2049707 80.27125 1567.57107422 79.78515625 1566.91796875 C72.88462815 1557.65647424 65.90629229 1548.46671033 58.7980957 1539.36328125 C54.04704563 1533.27263199 49.39208233 1527.11859515 44.78515625 1520.91796875 C39.6456265 1514.00330304 34.42716901 1507.16701737 29.08251953 1500.41064453 C25.05961117 1495.30716265 21.16478538 1490.11376926 17.28393555 1484.90185547 C13.42419776 1479.7324852 9.46903405 1474.64587116 5.4375 1469.609375 C2.69147372 1466.15794748 0.21151489 1462.59898293 -2.21484375 1458.91796875 C-2.95734375 1458.01046875 -3.69984375 1457.10296875 -4.46484375 1456.16796875 C-6.21484375 1453.91796875 -6.21484375 1453.91796875 -6.21484375 1451.91796875 C-6.83359375 1451.71171875 -7.45234375 1451.50546875 -8.08984375 1451.29296875 C-11.04485665 1449.38090158 -11.1705268 1447.19016187 -12.21484375 1443.91796875 C-13.20484375 1443.58796875 -14.19484375 1443.25796875 -15.21484375 1442.91796875 C-16.72265625 1440.80078125 -16.72265625 1440.80078125 -18.33984375 1438.04296875 C-21.59489671 1432.70829863 -25.30005526 1428.04024229 -29.39453125 1423.328125 C-31.13895129 1421.01845297 -31.6426062 1419.67455394 -32.21484375 1416.91796875 C-34.14814978 1415.826306 -34.14814978 1415.826306 -36.21484375 1414.91796875 C-38.21484375 1411.91796875 -38.21484375 1411.91796875 -38.21484375 1408.91796875 C-38.87484375 1408.91796875 -39.53484375 1408.91796875 -40.21484375 1408.91796875 C-41.88118263 1406.95192863 -43.43207178 1404.98438291 -44.96484375 1402.91796875 C-45.4144043 1402.32218018 -45.86396484 1401.7263916 -46.32714844 1401.11254883 C-47.62878305 1399.38523565 -48.92242069 1397.65217881 -50.21484375 1395.91796875 C-50.80265625 1395.13808594 -51.39046875 1394.35820313 -51.99609375 1393.5546875 C-53.4084738 1391.68027888 -54.81247954 1389.79987705 -56.21484375 1387.91796875 C-57.21442282 1386.58431983 -58.21443126 1385.25099261 -59.21484375 1383.91796875 C-59.70855469 1383.25925781 -60.20226563 1382.60054687 -60.7109375 1381.921875 C-61.72229646 1380.57427202 -62.73534733 1379.22793729 -63.75 1377.8828125 C-66.16502072 1374.67719676 -68.54427348 1371.46039216 -70.83984375 1368.16796875 C-72.20372394 1366.2368876 -73.44301756 1364.69715538 -75.15234375 1363.04296875 C-77.09896543 1361.03735853 -78.44928522 1359.12962503 -79.96484375 1356.79296875 C-82.81643825 1352.40756205 -85.98121571 1348.37413963 -89.27734375 1344.31640625 C-92.02099748 1340.92002845 -94.62528248 1337.43237333 -97.21484375 1333.91796875 C-97.92382812 1332.97050781 -98.6328125 1332.02304688 -99.36328125 1331.046875 C-100.09804687 1330.05558594 -100.8328125 1329.06429688 -101.58984375 1328.04296875 C-102.62238281 1326.65464844 -102.62238281 1326.65464844 -103.67578125 1325.23828125 C-105.21484375 1322.91796875 -105.21484375 1322.91796875 -105.21484375 1320.91796875 C-106.20484375 1320.58796875 -107.19484375 1320.25796875 -108.21484375 1319.91796875 C-109.35546875 1318.3515625 -109.35546875 1318.3515625 -110.46484375 1316.35546875 C-112.28047502 1313.2949885 -114.19735863 1310.67684811 -116.58984375 1308.04296875 C-119.16903565 1305.19140529 -121.42230752 1302.28151142 -123.58984375 1299.10546875 C-126.83230149 1294.35523156 -130.39655521 1289.95458819 -134.1015625 1285.55859375 C-136.32670888 1282.77818903 -138.2404937 1279.88130515 -140.21484375 1276.91796875 C-142.30229045 1274.09730596 -144.44512673 1271.32022903 -146.58984375 1268.54296875 C-152.74326227 1260.54927554 -158.83925304 1252.56555318 -164.50390625 1244.21484375 C-166.13727486 1241.89826168 -166.13727486 1241.89826168 -168.10546875 1240.06640625 C-170.89769417 1237.22247295 -173.07011007 1234.05949942 -175.33984375 1230.79296875 C-178.51889017 1226.1469758 -178.51889017 1226.1469758 -182.21484375 1221.91796875 C-187.19699915 1222.27209254 -191.54706041 1223.57380747 -196.21484375 1225.29296875 C-197.36984375 1225.71320313 -198.52484375 1226.1334375 -199.71484375 1226.56640625 C-201.98553049 1227.44325626 -204.23623988 1228.37446809 -206.45849609 1229.36767578 C-210.1519369 1230.95538894 -213.92963286 1232.06631149 -217.81640625 1233.07421875 C-218.52703217 1233.26189819 -219.23765808 1233.44957764 -219.96981812 1233.64294434 C-222.25780448 1234.24275524 -224.54832662 1234.83180011 -226.83984375 1235.41796875 C-227.62085449 1235.6190625 -228.40186523 1235.82015625 -229.20654297 1236.02734375 C-241.46144723 1239.16588685 -253.60886932 1241.6810718 -266.21484375 1242.91796875 C-267.40080894 1243.04386383 -267.40080894 1243.04386383 -268.61073303 1243.17230225 C-275.69635795 1243.883738 -282.71748441 1244.09372618 -289.8359375 1244.12109375 C-291.01591812 1244.12679382 -292.19589874 1244.1324939 -293.41163635 1244.1383667 C-295.89835734 1244.14776127 -298.38509046 1244.15432845 -300.87182617 1244.15820312 C-304.61074477 1244.16786129 -308.34910164 1244.19891987 -312.08789062 1244.23046875 C-325.34595774 1244.28907573 -337.97952353 1243.646919 -351.02496338 1241.28662109 C-354.48796383 1240.70364713 -357.9712185 1240.34673189 -361.4609375 1239.96484375 C-368.88932848 1239.05855581 -376.03046553 1237.52884489 -383.26977539 1235.67871094 C-385.27735673 1235.16796545 -387.28940215 1234.67892428 -389.30273438 1234.19140625 C-397.42964972 1232.17528948 -405.07752194 1229.56731337 -412.7980957 1226.32519531 C-416.28300666 1224.88989508 -419.7753065 1223.63950904 -423.33984375 1222.41796875 C-434.35093294 1218.51080807 -444.60146931 1213.26847669 -454.96484375 1207.91796875 C-455.93542725 1207.41966553 -456.90601074 1206.9213623 -457.90600586 1206.40795898 C-463.9495444 1203.25469612 -469.61747321 1199.8029256 -475.21484375 1195.91796875 C-476.52139977 1195.03666881 -477.82866997 1194.15642656 -479.13671875 1193.27734375 C-487.73291637 1187.4356005 -496.06096503 1181.36422889 -504.21484375 1174.91796875 C-505.1790625 1174.16 -506.14328125 1173.40203125 -507.13671875 1172.62109375 C-515.15971383 1166.26762366 -515.15971383 1166.26762366 -517.21484375 1163.91796875 C-517.21484375 1163.25796875 -517.21484375 1162.59796875 -517.21484375 1161.91796875 C-518.05208984 1161.57185547 -518.05208984 1161.57185547 -518.90625 1161.21875 C-521.82773576 1159.57263366 -523.81539041 1157.50723743 -526.15234375 1155.10546875 C-526.98636719 1154.25339844 -527.82039062 1153.40132812 -528.6796875 1152.5234375 C-529.93458984 1151.23373047 -529.93458984 1151.23373047 -531.21484375 1149.91796875 C-533.92035135 1147.19042933 -536.65077821 1144.49293423 -539.4140625 1141.82421875 C-547.1380102 1134.31525389 -553.89592016 1126.64618729 -560.21484375 1117.91796875 C-560.96894531 1116.90089844 -561.72304688 1115.88382813 -562.5 1114.8359375 C-571.21484375 1103.02107674 -571.21484375 1103.02107674 -571.21484375 1099.91796875 C-571.87484375 1099.91796875 -572.53484375 1099.91796875 -573.21484375 1099.91796875 C-573.51777344 1099.36109375 -573.82070313 1098.80421875 -574.1328125 1098.23046875 C-576.1641022 1094.53039644 -578.20735654 1090.88279624 -580.52734375 1087.35546875 C-583.48256833 1082.71287618 -585.83873348 1077.77912541 -588.26391602 1072.84692383 C-590.06892844 1069.18251309 -591.92086196 1065.58208537 -593.96484375 1062.04296875 C-596.53423876 1057.51635002 -598.39093591 1052.78437787 -600.21484375 1047.91796875 C-600.45847656 1047.28503906 -600.70210937 1046.65210938 -600.953125 1046 C-601.43795636 1044.72968766 -601.91392281 1043.45597013 -602.3828125 1042.1796875 C-602.99684094 1040.51056795 -603.62686967 1038.84731403 -604.265625 1037.1875 C-613.06507605 1013.65541754 -617.51788204 989.66118202 -621.21484375 964.91796875 C-621.39966309 963.88317383 -621.58448242 962.84837891 -621.77490234 961.78222656 C-622.43370079 955.9956218 -622.39824814 950.22983955 -622.41796875 944.41015625 C-622.42366882 943.09371124 -622.4293689 941.77726624 -622.4352417 940.42092896 C-622.44571671 937.63201518 -622.4515794 934.84312986 -622.45507812 932.05419922 C-622.45942786 929.23830965 -622.47318768 926.42273253 -622.49609375 923.60693359 C-622.62723233 907.15173466 -622.23641577 891.14626712 -619.21484375 874.91796875 C-619.01068848 873.7254248 -618.8065332 872.53288086 -618.59619141 871.30419922 C-618.0733783 868.33181655 -617.50411081 865.37527505 -616.90234375 862.41796875 C-616.69359619 861.38534912 -616.48484863 860.35272949 -616.26977539 859.28881836 C-613.55730133 846.2747247 -610.16196094 833.50644612 -605.1184082 821.19702148 C-604.00883595 818.39835707 -603.15330681 815.56544668 -602.33984375 812.66796875 C-598.50044031 799.97866627 -592.56711882 788.50459832 -586.26733398 776.90844727 C-585.23976621 774.96510233 -584.28586624 772.99783766 -583.3359375 771.015625 C-580.49115256 765.26696464 -576.79591844 760.01768923 -573.19726562 754.72070312 C-572.67068359 753.91568359 -572.14410156 753.11066406 -571.6015625 752.28125 C-571.11905029 751.56235596 -570.63653809 750.84346191 -570.1394043 750.1027832 C-568.95090339 747.29425543 -569.32455931 745.79200026 -570.21484375 742.91796875 C-571.4528515 740.88815862 -571.4528515 740.88815862 -573.02734375 739.04296875 C-575.34011455 736.10689802 -577.23089809 733.18621748 -579.01953125 729.89453125 C-580.59096056 727.29602396 -582.39846736 724.91347477 -584.21484375 722.48046875 C-587.05697155 718.64359622 -589.36271942 714.93010267 -591.359375 710.60546875 C-592.24650131 708.70666535 -592.24650131 708.70666535 -594.15234375 706.54296875 C-597.18963362 702.67732709 -599.09698598 698.3363749 -601.21484375 693.91796875 C-601.89933336 692.54146767 -602.58659509 691.16633962 -603.27734375 689.79296875 C-603.6021875 689.14070313 -603.92703125 688.4884375 -604.26171875 687.81640625 C-605.16890192 686.00947584 -606.09757591 684.21338251 -607.02734375 682.41796875 C-613.45358745 669.54018117 -618.97801017 656.0539762 -623.3984375 642.36328125 C-624.46408753 639.17142995 -625.62603238 636.01737928 -626.77734375 632.85546875 C-628.28805012 628.63808012 -629.71403527 624.4994142 -630.69140625 620.12890625 C-631.11720999 618.3303621 -631.60610733 616.54684509 -632.11328125 614.76953125 C-634.56199264 606.13460162 -636.18774885 597.57157499 -637.4921875 588.6953125 C-637.94922394 585.59161388 -638.45650622 582.50594876 -639.03125 579.421875 C-639.23415649 578.33108643 -639.23415649 578.33108643 -639.44116211 577.21826172 C-639.81133409 575.25655422 -640.18857627 573.29618446 -640.56640625 571.3359375 C-642.60229326 558.74530929 -642.40117521 545.91234642 -642.40014648 533.19726562 C-642.40232969 530.18735529 -642.42054336 527.17781452 -642.43945312 524.16796875 C-642.48559994 508.35907462 -641.31217138 493.17205326 -637.9921875 477.6953125 C-637.44509223 475.03681438 -636.95499142 472.41151053 -636.53125 469.734375 C-635.11601827 460.81547727 -633.06263626 452.53955719 -629.96679688 444.01953125 C-629.11940277 441.6512298 -628.31413344 439.27062637 -627.51171875 436.88671875 C-624.84069449 429.00295978 -622.22475872 421.28456435 -618.26171875 413.9375 C-617.22716461 411.94173698 -616.45584802 409.97556429 -615.71484375 407.85546875 C-612.9293705 400.03740027 -608.10292427 392.95955852 -603.77734375 385.91796875 C-603.29362305 385.1297876 -602.80990234 384.34160645 -602.31152344 383.52954102 C-597.52494317 375.75818836 -592.60719814 368.27663928 -586.94140625 361.11328125 C-585.28770816 359.01061535 -583.68301206 356.87920345 -582.08984375 354.73046875 C-578.12784353 349.43378941 -573.96218557 344.54358386 -569.21484375 339.91796875 C-568.49296875 339.15484375 -567.77109375 338.39171875 -567.02734375 337.60546875 C-565.21484375 335.91796875 -565.21484375 335.91796875 -563.21484375 335.91796875 C-562.86873047 335.06525391 -562.86873047 335.06525391 -562.515625 334.1953125 C-560.8836317 331.338099 -558.88805308 329.63077503 -556.40234375 327.48046875 C-553.57926264 325.01180042 -550.80026131 322.57287459 -548.21484375 319.85546875 C-546.21484375 317.91796875 -546.21484375 317.91796875 -544.21484375 317.91796875 C-544.00730469 317.34175781 -543.79976562 316.76554687 -543.5859375 316.171875 C-541.69957591 313.07093302 -539.33548922 311.77932026 -536.27734375 309.85546875 C-532.90598152 307.72122851 -530.01513604 305.73386155 -527.21484375 302.91796875 C-524.97462896 301.58682663 -522.68267384 300.4012404 -520.37109375 299.19921875 C-518.20965871 298.03483857 -518.20965871 298.03483857 -516.73046875 296.43359375 C-508.47108972 288.17421472 -492.7923513 283.37265068 -482.14453125 278.83984375 C-480.11794951 277.9200031 -480.11794951 277.9200031 -477.98828125 276.49609375 C-474.44788786 274.48156005 -470.81201997 273.22532775 -466.96484375 271.91796875 C-466.25199219 271.67046875 -465.53914062 271.42296875 -464.8046875 271.16796875 C-463.34823083 270.66411347 -461.89018582 270.16482832 -460.43066406 269.66992188 C-458.95885439 269.17045363 -457.48940159 268.66398321 -456.02246094 268.15039062 C-450.40767863 266.21357556 -444.75051606 264.74951991 -438.96484375 263.41796875 C-438.04098877 263.20293701 -437.11713379 262.98790527 -436.1652832 262.76635742 C-434.33593036 262.34075158 -432.50626898 261.9164693 -430.67626953 261.49365234 C-428.62121606 261.01301199 -426.57157053 260.50932409 -424.5234375 260 C-407.04185661 255.68977292 -389.62454249 255.52304115 -371.71484375 255.29296875 C-369.23436258 255.25470273 -366.75389348 255.2156463 -364.2734375 255.17578125 C-358.25401488 255.08073611 -352.23451703 254.99542849 -346.21484375 254.91796875 C-346.11780151 253.67599731 -346.11780151 253.67599731 -346.01879883 252.40893555 C-344.11851316 228.7458933 -342.02137949 204.78738549 -334.03808594 182.26269531 C-332.99803266 179.3004558 -332.00275385 176.3240373 -331.00390625 173.34765625 C-330.20050753 170.97482367 -329.3958135 168.60242927 -328.58984375 166.23046875 C-328.01314941 164.52588501 -328.01314941 164.52588501 -327.42480469 162.78686523 C-327.05387695 161.71251221 -326.68294922 160.63815918 -326.30078125 159.53125 C-325.97126465 158.57001221 -325.64174805 157.60877441 -325.30224609 156.6184082 C-324.18423391 153.8419527 -322.78772344 151.45883512 -321.21484375 148.91796875 C-320.21023308 146.58661681 -319.21063576 144.25310102 -318.21484375 141.91796875 C-316.93527428 139.34683385 -315.58062933 136.81915861 -314.21484375 134.29296875 C-313.87195313 133.65101563 -313.5290625 133.0090625 -313.17578125 132.34765625 C-310.17986522 126.76747677 -306.93144525 121.43029761 -303.40234375 116.16796875 C-302.35433594 114.60175781 -302.35433594 114.60175781 -301.28515625 113.00390625 C-299.98864495 111.07137053 -298.69182009 109.1390451 -297.39453125 107.20703125 C-296.86085938 106.41039062 -296.3271875 105.61375 -295.77734375 104.79296875 C-295.06771484 103.73722656 -295.06771484 103.73722656 -294.34375 102.66015625 C-293.16691604 100.91467835 -293.16691604 100.91467835 -292.21484375 98.91796875 C-291.55484375 98.91796875 -290.89484375 98.91796875 -290.21484375 98.91796875 C-289.96863281 98.19996094 -289.72242188 97.48195313 -289.46875 96.7421875 C-285.58628657 87.9975736 -277.03184444 79.56202228 -270.21484375 72.91796875 C-269.55484375 72.91796875 -268.89484375 72.91796875 -268.21484375 72.91796875 C-267.94671875 72.27859375 -267.67859375 71.63921875 -267.40234375 70.98046875 C-266.21484375 68.91796875 -266.21484375 68.91796875 -263.21484375 67.91796875 C-263.21484375 67.25796875 -263.21484375 66.59796875 -263.21484375 65.91796875 C-262.55484375 65.91796875 -261.89484375 65.91796875 -261.21484375 65.91796875 C-261.21484375 65.25796875 -261.21484375 64.59796875 -261.21484375 63.91796875 C-259.64543574 62.47984202 -258.0061034 61.11766825 -256.33984375 59.79296875 C-254.83744141 58.59220703 -254.83744141 58.59220703 -253.3046875 57.3671875 C-252.28503906 56.55894531 -251.26539063 55.75070312 -250.21484375 54.91796875 C-249.30863281 54.18191406 -248.40242188 53.44585937 -247.46875 52.6875 C-243.16937784 49.19957707 -238.85536295 45.94439431 -234.21484375 42.91796875 C-232.94029902 41.94363798 -231.66977493 40.96403518 -230.40234375 39.98046875 C-226.85513408 37.28268668 -223.16302813 35.16663635 -219.23828125 33.0703125 C-217.04077407 31.88999868 -217.04077407 31.88999868 -214.65234375 29.85546875 C-211.24288123 27.14538316 -206.70489919 23.91796875 -202.21484375 23.91796875 C-202.21484375 23.25796875 -202.21484375 22.59796875 -202.21484375 21.91796875 C-200.78205078 21.35529297 -200.78205078 21.35529297 -199.3203125 20.78125 C-193.3403539 18.41816425 -187.3995917 16.05582667 -181.58984375 13.29296875 C-176.64140224 10.98861987 -171.6014659 9.39959765 -166.35546875 7.91015625 C-163.11632048 6.9500533 -163.11632048 6.9500533 -159.7578125 5.390625 C-156.22227044 3.9210557 -153.03901444 3.14967204 -149.27734375 2.48046875 C-143.90325091 1.48551536 -138.62730831 0.29923727 -133.33984375 -1.08203125 C-93.42318325 -11.25003065 -39.36334919 -13.24866066 0 0 Z " fill="#010101" transform="translate(1135.21484375,446.08203125)"/>
<path d="M0 0 C1.54259239 -0.0049926 1.54259239 -0.0049926 3.11634827 -0.01008606 C5.28369708 -0.01512037 7.45105355 -0.01749547 9.6184082 -0.01733398 C12.87009087 -0.01950451 16.12142473 -0.03765413 19.37304688 -0.05664062 C29.11226395 -0.0836579 38.77445202 0.03624596 48.46875 1.0390625 C49.56859474 1.15251762 49.56859474 1.15251762 50.69065857 1.26826477 C59.03118291 2.25012922 67.00469269 4.58319639 74.97265625 7.16796875 C75.72385742 7.41095703 76.47505859 7.65394531 77.24902344 7.90429688 C84.95284408 10.43371248 92.47580987 13.07235004 99.6015625 16.9921875 C102.14554835 18.30976838 102.14554835 18.30976838 105.67578125 19.50390625 C110.43285803 21.24992243 114.75449582 23.62012972 119.16015625 26.10546875 C120.33094727 26.75032227 120.33094727 26.75032227 121.52539062 27.40820312 C125.65189709 29.71470674 129.32649023 32.13617502 132.97265625 35.16796875 C134.42671875 35.87953125 134.42671875 35.87953125 135.91015625 36.60546875 C139.49653947 38.43525611 142.02459165 40.4304802 144.97265625 43.16796875 C144.97265625 43.82796875 144.97265625 44.48796875 144.97265625 45.16796875 C145.5553125 45.26980469 146.13796875 45.37164063 146.73828125 45.4765625 C153.56876861 47.59019233 160.38655287 55.86223744 164.97265625 61.16796875 C164.97265625 61.82796875 164.97265625 62.48796875 164.97265625 63.16796875 C165.55402344 63.40128906 166.13539063 63.63460938 166.734375 63.875 C177.77900883 70.25505899 183.70885152 89.07094731 187.16113281 100.60839844 C188.56525546 106.76727577 188.54995959 112.81490974 188.47265625 119.10546875 C188.488125 120.36037109 188.50359375 121.61527344 188.51953125 122.90820312 C188.47033102 134.83310939 185.75466362 145.84256787 180.22265625 156.41796875 C179.87686523 157.08924805 179.53107422 157.76052734 179.17480469 158.45214844 C176.07956571 164.28062656 172.46761233 169.32245284 167.97265625 174.16796875 C167.52905762 174.64717773 167.08545898 175.12638672 166.62841797 175.62011719 C159.9835576 182.7220791 153.03944646 188.69446951 144.97265625 194.16796875 C143.35810547 195.31265625 143.35810547 195.31265625 141.7109375 196.48046875 C136.40890564 200.23732822 131.09552183 203.80227694 125.3515625 206.859375 C119.23771356 210.22249388 113.32088812 213.99501328 107.46875 217.79296875 C102.26242898 221.16796875 102.26242898 221.16796875 98.97265625 221.16796875 C98.64265625 222.15796875 98.31265625 223.14796875 97.97265625 224.16796875 C95.56640625 225.78125 95.56640625 225.78125 92.47265625 227.48046875 C87.92470024 230.04171434 83.55057737 232.70631181 79.2421875 235.6484375 C76.73356748 237.32804712 74.16884034 238.89848137 71.59765625 240.48046875 C66.42754877 243.73275075 61.8155871 247.4679464 57.1875 251.4453125 C54.97265625 253.16796875 54.97265625 253.16796875 52.97265625 253.16796875 C52.97265625 253.82796875 52.97265625 254.48796875 52.97265625 255.16796875 C51.18506601 256.49989873 49.39382136 257.82706952 47.58984375 259.13671875 C39.84081133 265.15089316 32.67405864 272.03789428 26.390625 279.5625 C24.47849597 281.72747253 22.24107405 283.39001966 19.97265625 285.16796875 C18.61878689 286.81799703 17.28587483 288.48540745 15.97265625 290.16796875 C13.64682992 292.56024726 11.26431529 294.88657178 8.86328125 297.203125 C4.77609392 301.20116227 1.0898432 305.15823125 -2.234375 309.8046875 C-4.69427554 313.04704007 -7.36066848 316.09495838 -10.02734375 319.16796875 C-13.78292418 323.49930163 -17.4364317 327.83084335 -20.74609375 332.51953125 C-22.02734375 334.16796875 -22.02734375 334.16796875 -23.8984375 336.03125 C-26.32274685 338.4644559 -28.43782254 341.05409719 -30.58984375 343.73046875 C-35.91700898 350.35124578 -35.91700898 350.35124578 -38.02734375 352.16796875 C-38.68734375 352.16796875 -39.34734375 352.16796875 -40.02734375 352.16796875 C-40.02734375 352.82796875 -40.02734375 353.48796875 -40.02734375 354.16796875 C-40.68734375 354.16796875 -41.34734375 354.16796875 -42.02734375 354.16796875 C-42.02734375 354.82796875 -42.02734375 355.48796875 -42.02734375 356.16796875 C-43.48828125 357.67578125 -43.48828125 357.67578125 -45.40234375 359.29296875 C-46.02882813 359.83179688 -46.6553125 360.370625 -47.30078125 360.92578125 C-49.02734375 362.16796875 -49.02734375 362.16796875 -51.02734375 362.16796875 C-51.27355469 362.76867188 -51.51976562 363.369375 -51.7734375 363.98828125 C-53.24764597 366.55092401 -54.59508636 367.48539535 -57.08984375 369.04296875 C-60.70776717 371.32623536 -60.70776717 371.32623536 -64.234375 373.74609375 C-69.84344451 377.74824064 -75.46896753 380.121087 -82.02734375 382.16796875 C-82.71892578 382.41949707 -83.41050781 382.67102539 -84.12304688 382.93017578 C-91.31131628 385.38524175 -98.09454087 385.70793002 -105.65234375 385.66796875 C-106.88984375 385.66297363 -108.12734375 385.65797852 -109.40234375 385.65283203 C-119.16472762 385.46735697 -127.09614463 384.15009828 -136.02734375 380.16796875 C-137.16558594 379.66394531 -138.30382813 379.15992188 -139.4765625 378.640625 C-144.50090457 376.25875958 -148.75395416 373.73965233 -153.02734375 370.16796875 C-153.61257813 369.69875 -154.1978125 369.22953125 -154.80078125 368.74609375 C-159.38596749 364.94374419 -163.18172349 360.70030692 -167.02734375 356.16796875 C-167.80380249 355.31477051 -167.80380249 355.31477051 -168.59594727 354.44433594 C-172.93111511 349.63977775 -176.55508755 344.66241391 -179.96484375 339.16796875 C-180.48208008 338.33837646 -180.99931641 337.50878418 -181.53222656 336.65405273 C-191.79857717 319.95606027 -199.57166941 301.99054392 -205.02734375 283.16796875 C-205.38957031 282.00910156 -205.75179688 280.85023438 -206.125 279.65625 C-208.39557505 272.18265681 -209.76629423 264.983878 -210.6328125 257.25 C-210.93050214 254.13647676 -210.93050214 254.13647676 -212.02734375 251.16796875 C-213.339166 242.44301639 -213.18142692 233.58025455 -213.15771484 224.78125 C-213.15238503 222.43613119 -213.15767389 220.09120654 -213.1640625 217.74609375 C-213.17418793 203.23052175 -212.45727139 189.30053602 -209.15234375 175.10546875 C-208.89582031 173.93564453 -208.63929687 172.76582031 -208.375 171.56054688 C-207.11959554 166.02478098 -205.82624814 161.15452254 -203.02734375 156.16796875 C-202.57378405 154.25653857 -202.12133429 152.34480237 -201.68359375 150.4296875 C-200.65055869 146.86940597 -199.042226 143.60543306 -197.44140625 140.26953125 C-196.25691581 137.67150526 -195.22217698 135.08238397 -194.203125 132.41796875 C-192.11993045 127.16294883 -189.4791223 122.39155174 -186.58984375 117.54296875 C-186.12513672 116.74890625 -185.66042969 115.95484375 -185.18164062 115.13671875 C-182.53727791 110.63724523 -179.8170333 106.19183702 -177.02319336 101.78369141 C-175.97326828 100.13364324 -175.97326828 100.13364324 -175.02734375 98.16796875 C-174.36734375 98.16796875 -173.70734375 98.16796875 -173.02734375 98.16796875 C-172.75019531 97.58273437 -172.47304687 96.9975 -172.1875 96.39453125 C-167.19548785 86.81390187 -158.6949705 78.62260587 -151.02734375 71.16796875 C-148.40619606 68.55581299 -145.79483614 65.93442751 -143.1953125 63.30078125 C-123.6770902 43.56493191 -99.83516444 26.3666141 -73.58984375 16.66796875 C-69.83576985 15.25857476 -66.15652744 13.80978153 -62.52734375 12.10546875 C-53.00186869 7.84541729 -43.00498047 5.62805471 -32.83984375 3.48046875 C-31.83042725 3.26592041 -30.82101074 3.05137207 -29.78100586 2.83032227 C-28.79624268 2.62850342 -27.81147949 2.42668457 -26.796875 2.21875 C-25.92651611 2.03997314 -25.05615723 1.86119629 -24.15942383 1.67700195 C-16.11347702 0.36935529 -8.14129595 0.00943144 0 0 Z " fill="#010101" transform="translate(1240.02734375,991.83203125)"/>
<path d="M0 0 C29.48476142 -0.30182421 51.93888575 7.17827574 72.97998047 27.66162109 C76.37793697 31.03972861 79.63389999 34.51888893 82.72998047 38.17724609 C84.3471725 40.10851712 84.3471725 40.10851712 86.33935547 41.95458984 C100.41265129 56.63141881 104.93795442 80.33318862 104.84326172 99.79443359 C104.84044189 101.09687012 104.83762207 102.39930664 104.8347168 103.74121094 C104.64527675 115.09493731 103.78348959 127.86815255 96.34326172 137.04443359 C95.95138672 138.07568359 95.55951172 139.10693359 95.15576172 140.16943359 C93.01717693 145.44690896 89.23241748 149.94058983 85.34326172 154.04443359 C84.68326172 154.04443359 84.02326172 154.04443359 83.34326172 154.04443359 C83.09705078 154.61419922 82.85083984 155.18396484 82.59716797 155.77099609 C75.55072426 168.54679123 61.28514248 174.31758606 48.34326172 179.04443359 C47.00847778 179.5691626 47.00847778 179.5691626 45.64672852 180.10449219 C41.70819124 181.22513135 37.9972235 181.36842293 33.93701172 181.38037109 C33.13525513 181.38702789 32.33349854 181.39368469 31.50744629 181.40054321 C29.81309283 181.41063501 28.11869989 181.41536131 26.42431641 181.41503906 C23.87836845 181.41937382 21.33421162 181.4556209 18.78857422 181.49365234 C8.56701108 181.56454225 0.03618248 180.53935964 -9.65673828 177.04443359 C-10.78329834 176.66714111 -10.78329834 176.66714111 -11.93261719 176.28222656 C-24.68192632 171.89162839 -35.78951182 165.25657448 -45.65673828 156.04443359 C-46.36056641 155.46435547 -47.06439453 154.88427734 -47.78955078 154.28662109 C-60.1807567 143.96781199 -68.03970271 130.53772814 -74.65673828 116.04443359 C-74.96047363 115.39120117 -75.26420898 114.73796875 -75.57714844 114.06494141 C-82.72222954 97.84667373 -82.86042656 72.32256601 -77.03173828 55.66943359 C-76.00830926 53.05658371 -74.87182868 50.58125049 -73.65673828 48.04443359 C-73.21201172 47.02349609 -72.76728516 46.00255859 -72.30908203 44.95068359 C-68.60068078 37.2527778 -62.86049317 30.85285116 -56.65673828 25.04443359 C-55.99673828 25.04443359 -55.33673828 25.04443359 -54.65673828 25.04443359 C-54.65673828 24.38443359 -54.65673828 23.72443359 -54.65673828 23.04443359 C-52.18918577 20.49619817 -49.39057565 18.30064547 -46.65673828 16.04443359 C-45.91294922 15.42568359 -45.16916016 14.80693359 -44.40283203 14.16943359 C-31.20884779 3.52246197 -16.72115581 0.2796591 0 0 Z " fill="#010101" transform="translate(797.65673828125,908.95556640625)"/>
<path d="M0 0 C2.27355543 0.00848161 4.54456388 -0.02029853 6.81787109 -0.05200195 C20.92932662 -0.12010208 33.21133773 2.29294028 45.04052734 10.44604492 C45.76240234 10.88561523 46.48427734 11.32518555 47.22802734 11.77807617 C54.25255468 16.13077436 60.09796975 21.76081052 66.04052734 27.44604492 C67.29929687 28.64293945 67.29929687 28.64293945 68.58349609 29.86401367 C72.65564662 33.82084666 72.65564662 33.82084666 74.04052734 35.44604492 C74.04052734 36.10604492 74.04052734 36.76604492 74.04052734 37.44604492 C74.70052734 37.44604492 75.36052734 37.44604492 76.04052734 37.44604492 C83.02290444 46.54731039 88.06606563 56.73119517 92.04052734 67.44604492 C92.29882324 68.11571289 92.55711914 68.78538086 92.82324219 69.4753418 C100.2972572 89.61726023 100.2899472 116.59961454 92.04052734 136.44604492 C91.72986328 137.3715918 91.41919922 138.29713867 91.09912109 139.25073242 C88.00208605 148.16686021 82.22332189 156.37447367 76.04052734 163.44604492 C75.38052734 163.44604492 74.72052734 163.44604492 74.04052734 163.44604492 C73.70408203 164.29682617 73.70408203 164.29682617 73.36083984 165.16479492 C69.58264357 171.69280269 61.6621023 176.58124918 54.87646484 179.61401367 C52.96486813 180.48033303 51.21398561 181.49118461 49.41552734 182.57104492 C38.91466321 188.40485833 27.42357331 188.78897465 15.66552734 188.75854492 C13.80927734 188.78271484 13.80927734 188.78271484 11.91552734 188.80737305 C-0.55002652 188.81393386 -10.65090297 186.06150631 -21.77197266 180.57104492 C-22.66078125 180.14952148 -23.54958984 179.72799805 -24.46533203 179.29370117 C-29.68526068 176.76680751 -34.43399948 174.08864953 -38.95947266 170.44604492 C-38.95947266 169.78604492 -38.95947266 169.12604492 -38.95947266 168.44604492 C-39.84940918 168.04289062 -39.84940918 168.04289062 -40.75732422 167.6315918 C-42.96487299 166.4431376 -44.42490147 165.23862103 -46.19384766 163.47729492 C-46.76748047 162.90624023 -47.34111328 162.33518555 -47.93212891 161.74682617 C-48.51865234 161.15256836 -49.10517578 160.55831055 -49.70947266 159.94604492 C-50.31146484 159.35178711 -50.91345703 158.7575293 -51.53369141 158.14526367 C-52.10216797 157.57420898 -52.67064453 157.0031543 -53.25634766 156.41479492 C-54.03510254 155.63265625 -54.03510254 155.63265625 -54.82958984 154.8347168 C-55.95947266 153.44604492 -55.95947266 153.44604492 -55.95947266 151.44604492 C-56.94947266 151.11604492 -57.93947266 150.78604492 -58.95947266 150.44604492 C-68.18135184 139.15806165 -78.98715527 119.88097065 -79.12060547 105.01977539 C-79.13021301 104.15142059 -79.13982056 103.2830658 -79.14971924 102.38839722 C-79.15396912 101.45609283 -79.15821899 100.52378845 -79.16259766 99.56323242 C-79.16829773 98.59378693 -79.1739978 97.62434143 -79.17987061 96.6255188 C-79.18931169 94.57286669 -79.19585104 92.52019949 -79.19970703 90.4675293 C-79.20937248 87.35332118 -79.24038797 84.23978461 -79.27197266 81.12573242 C-79.27850735 79.12573632 -79.28375598 77.12573551 -79.28759766 75.12573242 C-79.29994446 74.20557343 -79.31229126 73.28541443 -79.32501221 72.33737183 C-79.27023817 56.14355562 -71.20717694 40.83427012 -60.04150391 29.48120117 C-59.55117676 29.00054199 -59.06084961 28.51988281 -58.55566406 28.0246582 C-56.76673373 26.25542854 -55.02530993 24.44542636 -53.28369141 22.62963867 C-52.03097023 21.33812355 -50.77707942 20.04774182 -49.52197266 18.75854492 C-48.93077637 18.14543457 -48.33958008 17.53232422 -47.73046875 16.90063477 C-47.1679541 16.33425293 -46.60543945 15.76787109 -46.02587891 15.18432617 C-45.53031494 14.6794165 -45.03475098 14.17450684 -44.52416992 13.65429688 C-42.70671856 12.25086939 -41.20008045 11.85351066 -38.95947266 11.44604492 C-38.95947266 10.78604492 -38.95947266 10.12604492 -38.95947266 9.44604492 C-37.02760081 8.49700136 -35.08857054 7.56252831 -33.14697266 6.63354492 C-32.06802734 6.11147461 -30.98908203 5.5894043 -29.87744141 5.05151367 C-20.02765171 0.82777275 -10.60194801 -0.0600709 0 0 Z " fill="#010101" transform="translate(1076.95947265625,665.553955078125)"/>
<path d="M0 0 C1.90023926 0.00966797 1.90023926 0.00966797 3.83886719 0.01953125 C30.63777514 0.53738454 52.38721997 11.96663503 71.25 30.5 C71.91652588 31.15226562 72.58305176 31.80453125 73.26977539 32.4765625 C88.0476107 47.4049455 95.45065496 66.65820909 95.47070312 87.47851562 C95.46433838 88.21368408 95.45797363 88.94885254 95.45141602 89.70629883 C95.43752201 91.93397181 95.47182352 94.15744156 95.50976562 96.38476562 C95.61960576 116.98071195 87.73903647 135.43907681 73.44921875 150.1484375 C70.875 152.5 70.875 152.5 68.875 152.5 C68.875 153.16 68.875 153.82 68.875 154.5 C66.73560659 156.71742599 64.27914493 158.57763808 61.875 160.5 C60.864375 161.325 59.85375 162.15 58.8125 163 C53.37494235 166.81367165 47.00460259 169.04532118 40.875 171.5 C40.070625 171.82226562 39.26625 172.14453125 38.4375 172.4765625 C30.35770676 175.60117004 23.43507904 176.88588279 14.8125 177.1875 C13.27831421 177.24393677 13.27831421 177.24393677 11.71313477 177.30151367 C-15.8714688 178.16728074 -42.68562871 169.66059215 -63.0625 150.625 C-68.85923091 145.0486164 -74.12214112 139.52995161 -78.125 132.5 C-78.72441406 131.49710938 -79.32382812 130.49421875 -79.94140625 129.4609375 C-88.14266747 115.11301077 -90.30232659 101.73675744 -90.3125 85.5 C-90.32474609 84.47132812 -90.33699219 83.44265625 -90.34960938 82.3828125 C-90.36152727 76.13783432 -89.80527786 70.51537958 -88.125 64.5 C-87.85300781 63.49453125 -87.58101562 62.4890625 -87.30078125 61.453125 C-83.28543739 48.8801931 -77.38129727 38.88201948 -68.125 29.5 C-67.43792969 28.74074219 -66.75085938 27.98148438 -66.04296875 27.19921875 C-49.22687441 9.13517678 -24.31742139 -0.13063348 0 0 Z " fill="#010101" transform="translate(821.125,1289.5)"/>
<path d="M0 0 C18.93388157 17.36372585 33.06544133 41.07037313 34.35424805 67.20898438 C35.23425099 93.92257374 28.17445364 119.56807657 10.24487305 139.99072266 C9.25487305 140.32072266 8.26487305 140.65072266 7.24487305 140.99072266 C6.97030273 141.56306641 6.69573242 142.13541016 6.4128418 142.72509766 C0.33652416 154.51193454 -17.28102579 162.35928987 -29.16137695 166.18212891 C-36.71644284 168.25418915 -43.84626232 168.60250918 -51.62353516 168.51220703 C-53.82020912 168.49069737 -56.01362725 168.51216694 -58.21020508 168.53759766 C-70.15741678 168.56230638 -80.4974149 166.00790678 -91.19262695 160.55322266 C-92.30508789 159.99763672 -93.41754883 159.44205078 -94.5637207 158.86962891 C-98.0397182 156.82317261 -100.80078024 154.73118001 -103.75512695 151.99072266 C-103.75512695 151.33072266 -103.75512695 150.67072266 -103.75512695 149.99072266 C-104.31458008 149.75740234 -104.8740332 149.52408203 -105.45043945 149.28369141 C-110.31301618 146.55570344 -113.92704162 141.98339127 -117.75512695 137.99072266 C-118.3171582 137.44544922 -118.87918945 136.90017578 -119.45825195 136.33837891 C-135.00846529 120.23280081 -140.29851403 93.55203163 -140.17456055 72.11645508 C-139.69052102 52.22555323 -134.11491962 33.77918263 -121.75512695 17.99072266 C-121.18922852 17.22373047 -120.62333008 16.45673828 -120.0402832 15.66650391 C-116.0820545 10.37989006 -111.81804584 5.26219675 -106.75512695 0.99072266 C-106.09512695 0.99072266 -105.43512695 0.99072266 -104.75512695 0.99072266 C-104.75512695 0.33072266 -104.75512695 -0.32927734 -104.75512695 -1.00927734 C-104.09512695 -1.00927734 -103.43512695 -1.00927734 -102.75512695 -1.00927734 C-102.75512695 -1.66927734 -102.75512695 -2.32927734 -102.75512695 -3.00927734 C-70.54972331 -21.6365553 -29.97915522 -26.49881118 0 0 Z " fill="#010101" transform="translate(1521.755126953125,746.00927734375)"/>
<path d="M0 0 C2.47021376 0.02392757 4.93936495 0.02048986 7.40966797 0.01391602 C9.00472641 0.01948496 10.59978039 0.02658988 12.19482422 0.03540039 C13.28404175 0.03403328 13.28404175 0.03403328 14.39526367 0.03263855 C19.12932015 0.09786483 22.99292756 0.87248951 27.44482422 2.33618164 C27.44482422 2.66618164 27.44482422 2.99618164 27.44482422 3.33618164 C26.32736816 3.32570801 25.20991211 3.31523438 24.05859375 3.30444336 C19.82034651 3.26760703 15.58211261 3.24505559 11.34375 3.22631836 C9.52666833 3.21640293 7.70960196 3.20286652 5.89257812 3.18530273 C-5.15723596 3.08134765 -15.90902272 3.47068185 -26.87207031 4.90307617 C-29.82390089 5.25018922 -32.5917588 5.4280425 -35.55517578 5.33618164 C-25.13632212 -0.55962237 -11.60742947 -0.1203024 0 0 Z " fill="#262625" transform="translate(765.55517578125,830.663818359375)"/>
<path d="M0 0 C-0.33 0.66 -0.66 1.32 -1 2 C-0.484375 1.855625 0.03125 1.71125 0.5625 1.5625 C3.68509571 0.84190099 6.82550692 0.42733561 10 0 C10 0.99 10 1.98 10 3 C8.99195313 3.1134375 7.98390625 3.226875 6.9453125 3.34375 C2.99115736 4.00147086 -0.38168277 5.08494382 -4.125 6.5 C-8.0804544 7.98870494 -11.8254241 9.30686287 -16 10 C-14.32482761 6.46352496 -13.50719183 5.2088437 -9.8125 3.6875 C-8.4203125 3.3471875 -8.4203125 3.3471875 -7 3 C-7 2.01 -7 1.02 -7 0 C-4.3333581 -1.33332095 -2.83319697 -0.67102033 0 0 Z " fill="#1A1A19" transform="translate(943,1665)"/>
<path d="M0 0 C2.76623726 1.38311863 2.95402386 2.900837 4.0625 5.75 C4.40410156 6.61109375 4.74570312 7.4721875 5.09765625 8.359375 C6.79861043 13.33705908 7.08361721 16.82271777 6 22 C3.20661013 18.56861368 1.22264513 14.81217239 -0.75 10.875 C-1.07871094 10.24207031 -1.40742187 9.60914063 -1.74609375 8.95703125 C-2.56197269 7.33560094 -3.28852285 5.66987872 -4 4 C-3.67 3.34 -3.34 2.68 -3 2 C-2.34 2.33 -1.68 2.66 -1 3 C-0.67 2.01 -0.34 1.02 0 0 Z " fill="#0B0B0B" transform="translate(543,1500)"/>
<path d="M0 0 C-25.58219178 7.44726027 -25.58219178 7.44726027 -39 7 C-39 6.67 -39 6.34 -39 6 C-36.79248152 5.66131223 -34.58394089 5.32928311 -32.375 5 C-31.14523437 4.814375 -29.91546875 4.62875 -28.6484375 4.4375 C-25.3833973 4.04597484 -22.28287549 3.91919076 -19 4 C-18.814375 3.38125 -18.62875 2.7625 -18.4375 2.125 C-17 0 -17 0 -13.75 -1.3125 C-8.71039094 -2.23642833 -4.86187288 -1.21807093 0 0 Z " fill="#252524" transform="translate(912,1680)"/>
<path d="M0 0 C4.62 0 9.24 0 14 0 C13.67 1.32 13.34 2.64 13 4 C9.84493858 4.93619813 7.03413498 5.1057123 3.75 5.0625 C2.85796875 5.05347656 1.9659375 5.04445313 1.046875 5.03515625 C0.37140625 5.02355469 -0.3040625 5.01195312 -1 5 C-0.67 3.35 -0.34 1.7 0 0 Z " fill="#080808" transform="translate(847,1684)"/>
<path d="M0 0 C1.21945312 -0.01224609 2.43890625 -0.02449219 3.6953125 -0.03710938 C4.87609375 -0.03904297 6.056875 -0.04097656 7.2734375 -0.04296875 C8.34770996 -0.04707764 9.42198242 -0.05118652 10.52880859 -0.05541992 C13.8361859 0.20406915 16.53215122 1.01644105 19.625 2.1875 C19.625 2.5175 19.625 2.8475 19.625 3.1875 C12.875 3.3125 12.875 3.3125 10.625 2.1875 C7.17347457 1.91701712 3.71098435 1.94911024 0.25 1.9375 C-0.74628418 1.93355225 -1.74256836 1.92960449 -2.76904297 1.92553711 C-9.3027446 1.9771722 -14.91404109 2.55290689 -21.1328125 4.62890625 C-23.61922219 5.24834281 -24.9817874 5.02016153 -27.375 4.1875 C-25.79201974 3.7071682 -24.20860022 3.22828388 -22.625 2.75 C-21.74328125 2.48316406 -20.8615625 2.21632813 -19.953125 1.94140625 C-18.67695312 1.56822266 -18.67695312 1.56822266 -17.375 1.1875 C-16.78734863 1.01041504 -16.19969727 0.83333008 -15.59423828 0.65087891 C-10.51695206 -0.40926293 -5.16521187 0.00271282 0 0 Z " fill="#222120" transform="translate(973.375,1515.8125)"/>
<path d="M0 0 C0 0.66 0 1.32 0 2 C-7.66145933 4.34312056 -14.97229811 6.44636539 -23 7 C-23.33 6.34 -23.66 5.68 -24 5 C-21.58343624 4.35377959 -19.16675354 3.70800996 -16.75 3.0625 C-16.06808594 2.88009766 -15.38617187 2.69769531 -14.68359375 2.50976562 C-12.78970056 2.00411453 -10.89487972 1.50194154 -9 1 C-8.236875 0.79375 -7.47375 0.5875 -6.6875 0.375 C-4.440523 -0.12432822 -2.2926672 -0.0636852 0 0 Z " fill="#0D0E0D" transform="translate(909,1675)"/>
<path d="M0 0 C0 0.33 0 0.66 0 1 C-4.01935181 1.67580829 -8.04068815 2.33900261 -12.0625 3 C-13.19623047 3.19078125 -14.32996094 3.3815625 -15.49804688 3.578125 C-21.0636521 4.48679524 -26.35857867 5.26201086 -32 5 C-32 4.67 -32 4.34 -32 4 C-10.5989937 -0.77553612 -10.5989937 -0.77553612 0 0 Z " fill="#2B2B29" transform="translate(1444,504)"/>
<path d="M0 0 C0 3 0 3 -1.28515625 4.62573242 C-2.16494141 5.4819519 -2.16494141 5.4819519 -3.0625 6.35546875 C-3.69414063 6.97744141 -4.32578125 7.59941406 -4.9765625 8.24023438 C-5.64429688 8.88283203 -6.31203125 9.52542969 -7 10.1875 C-8.00160156 11.16879883 -8.00160156 11.16879883 -9.0234375 12.16992188 C-10.67578441 13.78686135 -12.33471601 15.39640491 -14 17 C-14.99 16.67 -15.98 16.34 -17 16 C-15.625 14.5 -15.625 14.5 -14 13 C-13.34 13 -12.68 13 -12 13 C-11.731875 12.360625 -11.46375 11.72125 -11.1875 11.0625 C-10 9 -10 9 -7 8 C-7 7.34 -7 6.68 -7 6 C-6.34 6 -5.68 6 -5 6 C-5 5.34 -5 4.68 -5 4 C-3.37373596 2.61767557 -1.7074998 1.28062485 0 0 Z " fill="#202020" transform="translate(879,506)"/>
<path d="M0 0 C3.7841619 0 7.47746124 0.22055268 11.25 0.5 C12.51328125 0.5928125 13.7765625 0.685625 15.078125 0.78125 C16.04234375 0.8534375 17.0065625 0.925625 18 1 C18 1.66 18 2.32 18 3 C11.73 3 5.46 3 -1 3 C-0.67 2.01 -0.34 1.02 0 0 Z " fill="#0C0D0D" transform="translate(813,1684)"/>
<path d="M0 0 C5.77278706 -0.24795864 10.83354896 0.66336059 16.4375 2 C17.67790039 2.28617188 17.67790039 2.28617188 18.94335938 2.578125 C20.96382366 3.04528437 22.98214547 3.52169374 25 4 C25 4.33 25 4.66 25 5 C18.97512156 5.21908649 13.82450494 4.49398047 8 3 C7.22527344 2.80921875 6.45054687 2.6184375 5.65234375 2.421875 C3.76617601 1.95615457 1.88277506 1.47925183 0 1 C0 0.67 0 0.34 0 0 Z " fill="#2A2A29" transform="translate(754,1681)"/>
<path d="M0 0 C0.66 0.33 1.32 0.66 2 1 C1.25 6.75 1.25 6.75 -1 9 C-2.5625 6.625 -2.5625 6.625 -4 4 C-3.67 3.34 -3.34 2.68 -3 2 C-2.34 2.33 -1.68 2.66 -1 3 C-0.67 2.01 -0.34 1.02 0 0 Z " fill="#161515" transform="translate(543,1500)"/>
<path d="M0 0 C-0.33 0.99 -0.66 1.98 -1 3 C-4.3 3.33 -7.6 3.66 -11 4 C-10.67 3.01 -10.34 2.02 -10 1 C-6.59437148 0.22157062 -3.49234244 -0.09978121 0 0 Z " fill="#070706" transform="translate(894,1681)"/>
<path d="M0 0 C0.91007812 0.00902344 1.82015625 0.01804687 2.7578125 0.02734375 C3.45648437 0.03894531 4.15515625 0.05054688 4.875 0.0625 C4.545 1.0525 4.215 2.0425 3.875 3.0625 C0.245 3.0625 -3.385 3.0625 -7.125 3.0625 C-7.125 2.4025 -7.125 1.7425 -7.125 1.0625 C-4.60024538 -0.19987731 -2.81299534 -0.03606404 0 0 Z " fill="#090B0A" transform="translate(1031.125,444.9375)"/>
<path d="M0 0 C2.475 0.99 2.475 0.99 5 2 C4.67 4.64 4.34 7.28 4 10 C1.16625119 6.79663178 0.4794463 4.21912747 0 0 Z " fill="#151414" transform="translate(545,1512)"/>
<path d="M0 0 C4.95 0.99 4.95 0.99 10 2 C10 2.66 10 3.32 10 4 C7.03 3.67 4.06 3.34 1 3 C0.67 2.01 0.34 1.02 0 0 Z " fill="#0B0B0C" transform="translate(791,1556)"/>
<path d="M0 0 C0.33 0.66 0.66 1.32 1 2 C1.99 2 2.98 2 4 2 C3.34 3.32 2.68 4.64 2 6 C0.35 6 -1.3 6 -3 6 C-1.125 1.125 -1.125 1.125 0 0 Z " fill="#111211" transform="translate(565,1196)"/>
<path d="M0 0 C2.64 0 5.28 0 8 0 C8 0.99 8 1.98 8 3 C5.36 2.67 2.72 2.34 0 2 C0 1.34 0 0.68 0 0 Z " fill="#0B0C0B" transform="translate(778,1681)"/>
<path d="M0 0 C-2.97180943 1.89865603 -5.51460083 3.35455571 -9 4 C-8 1 -8 1 -5.625 -0.25 C-3 -1 -3 -1 0 0 Z " fill="#0C0C0A" transform="translate(934,1668)"/>
<path d="M0 0 C8.57142857 0.85714286 8.57142857 0.85714286 12 3 C4.61538462 3.36923077 4.61538462 3.36923077 1.5 1.5 C1.005 1.005 0.51 0.51 0 0 Z " fill="#222322" transform="translate(767,1683)"/>
<path d="M0 0 C6.625 0.75 6.625 0.75 10 3 C3.47692308 3.36923077 3.47692308 3.36923077 1.0625 1.5 C0.5365625 0.7575 0.5365625 0.7575 0 0 Z " fill="#2D2C2B" transform="translate(983,1516)"/>
</svg>
