<svg xmlns="http://www.w3.org/2000/svg" width="24" height="24" viewBox="0 0 24 24"><path fill="#000000" d="M2.02 9.52C2.02 8.11 3.14 6.98 4.50 6.98C5.86 6.98 6.98 8.11 6.98 9.52C6.98 10.88 5.86 12 4.50 12C3.14 12 2.02 10.88 2.02 9.52ZM6.52 5.48C6.52 4.13 7.64 3 9 3C10.36 3 11.48 4.13 11.48 5.48C11.48 6.89 10.36 8.02 9 8.02C7.64 8.02 6.52 6.89 6.52 5.48ZM12.52 5.48C12.52 4.13 13.64 3 15 3C16.36 3 17.48 4.13 17.48 5.48C17.48 6.89 16.36 8.02 15 8.02C13.64 8.02 12.52 6.89 12.52 5.48ZM17.02 9.52C17.02 8.11 18.14 6.98 19.50 6.98C20.86 6.98 21.98 8.11 21.98 9.52C21.98 10.88 20.86 12 19.50 12C18.14 12 17.02 10.88 17.02 9.52ZM17.34 14.86C16.45 13.83 15.75 12.98 14.86 11.95C14.39 11.39 13.83 10.88 13.13 10.64C12.98 10.59 12.89 10.55 12.80 10.55C12.52 10.50 12.28 10.50 12 10.50C11.72 10.50 11.48 10.50 11.20 10.55C11.11 10.55 10.97 10.59 10.88 10.64C10.17 10.88 9.61 11.44 9.14 11.95C8.25 12.98 7.55 13.83 6.66 14.86C5.34 16.17 3.75 17.63 4.03 19.64C4.31 20.67 5.06 21.70 6.38 21.98C7.08 22.13 9.42 21.56 11.91 21.56L12.09 21.56C14.58 21.56 16.88 22.13 17.63 21.98C18.94 21.70 19.64 20.67 19.97 19.64C20.25 17.63 18.66 16.17 17.34 14.86Z"/></svg>
