<svg xmlns="http://www.w3.org/2000/svg" width="24" height="24" viewBox="0 0 24 24"><path fill="#000000" d="M19.45 8.02L20.25 6.23L21.98 5.44C22.41 5.30 22.41 4.73 21.98 4.55L20.25 3.75L19.45 2.02C19.27 1.59 18.75 1.59 18.56 2.02L17.77 3.75L15.98 4.55C15.61 4.73 15.61 5.25 15.98 5.44L17.77 6.23L18.56 8.02C18.70 8.39 19.27 8.39 19.45 8.02ZM11.48 9.52L9.89 6C9.56 5.20 8.44 5.20 8.11 6L6.52 9.52L3 11.11C2.20 11.44 2.20 12.56 3 12.89L6.52 14.48L8.11 18C8.44 18.80 9.56 18.80 9.89 18L11.48 14.48L15 12.89C15.80 12.56 15.80 11.44 15 11.11L11.48 9.52ZM18.56 15.98L17.77 17.77L15.98 18.56C15.61 18.70 15.61 19.27 15.98 19.45L17.77 20.25L18.56 21.98C18.70 22.41 19.27 22.41 19.45 21.98L20.25 20.25L21.98 19.45C22.41 19.27 22.41 18.75 21.98 18.56L20.25 17.77L19.45 15.98C19.27 15.61 18.70 15.61 18.56 15.98Z"/></svg>
