<svg xmlns="http://www.w3.org/2000/svg" width="24" height="24" viewBox="0 0 24 24"><path fill="#000000" d="M21.98 8.02C21.98 7.45 21.56 6.98 21 6.98L14.02 6.98C13.45 6.98 12.98 7.45 12.98 8.02C12.98 8.53 13.45 9 14.02 9L21 9C21.56 9 21.98 8.53 21.98 8.02ZM12.98 15.98C12.98 16.55 13.45 17.02 14.02 17.02L21 17.02C21.56 17.02 21.98 16.55 21.98 15.98C21.98 15.47 21.56 15 21 15L14.02 15C13.45 15 12.98 15.47 12.98 15.98ZM10.45 4.64C10.88 5.02 10.88 5.67 10.45 6.05L6.23 10.31C5.86 10.69 5.20 10.69 4.83 10.31L2.72 8.16C2.30 7.78 2.30 7.13 2.72 6.75C3.09 6.38 3.70 6.38 4.13 6.75L5.53 8.16L9.05 4.64C9.47 4.27 10.08 4.27 10.45 4.64ZM10.50 12.66C10.88 13.03 10.88 13.64 10.50 14.06L6.23 18.28C5.86 18.70 5.25 18.70 4.83 18.28L2.72 16.17C2.30 15.75 2.30 15.14 2.72 14.77C3.09 14.34 3.70 14.34 4.13 14.77L5.53 16.17L9.05 12.61C9.47 12.23 10.08 12.23 10.50 12.66Z"/></svg>
